<svg width="217" height="217" viewBox="0 0 217 217" fill="none" xmlns="http://www.w3.org/2000/svg">
<g clip-path="url(#clip0_210_8936)">
<path fill-rule="evenodd" clip-rule="evenodd" d="M198.899 93.9703C199.487 67.8218 186.159 45.4076 167.217 34.3677C149.495 24.0421 127.235 23.9878 108.5 39.2231C89.7659 23.9878 67.5054 24.0511 49.7837 34.3677C30.8414 45.4166 17.514 67.8218 18.1017 93.9703C18.9551 132.01 55.0988 163.154 81.9384 178.85L78.8736 198.539C77.3636 208.24 84.8656 217 94.6833 217H123.317C133.134 217 140.636 208.24 139.126 198.539L135.977 178.31C162.714 162.446 198.049 131.579 198.899 93.9703Z" fill="#FDD842"/>
<circle cx="68.5" cy="115.5" r="12.5" fill="#E6B421"/>
<circle cx="90.3493" cy="88.8913" r="10.8913" fill="white"/>
<circle cx="90.3488" cy="88.8918" r="6.93082" fill="#2F3B39"/>
<circle cx="125.537" cy="88.8913" r="10.8913" fill="white"/>
<circle cx="125.536" cy="88.8918" r="6.93082" fill="#2F3B39"/>
<circle cx="150.5" cy="115.5" r="12.5" fill="#E6B421"/>
<path d="M98.1229 110C98.1229 110 96.348 110 106.287 110C116.225 110 118 110 118 110" stroke="#20273D" stroke-width="5.5102" stroke-linecap="round"/>
</g>
<defs>
<clipPath id="clip0_210_8936">
<rect width="217" height="217" fill="white"/>
</clipPath>
</defs>
</svg>
