<svg width="24" height="24" viewBox="0 0 24 24" fill="none" xmlns="http://www.w3.org/2000/svg">
<path d="M16.1791 2.20898H7.8209C6.25373 2.20898 5 3.4211 5 4.83524V10.5928C5 13.9262 7.61194 16.7545 10.9552 17.2595V20.1888H7.8209C7.19403 20.1888 6.77612 20.5928 6.77612 21.1989C6.77612 21.805 7.19403 22.209 7.8209 22.209H16.1791C16.806 22.209 17.2239 21.805 17.2239 21.1989C17.2239 20.5928 16.806 20.1888 16.1791 20.1888H13.0448V17.2595C16.3881 16.7545 19 14.0272 19 10.5928V4.83524C19 3.4211 17.7463 2.20898 16.1791 2.20898Z" fill="#FDD842"/>
<path d="M3 4.20898C2.4 4.20898 2 4.57261 2 5.11807V10.2999C2 10.8454 2.4 11.209 3 11.209C3.6 11.209 4 10.8454 4 10.2999V5.11807C4 4.66352 3.6 4.20898 3 4.20898Z" fill="#FDD842"/>
<path d="M21 4.20898C20.4 4.20898 20 4.57261 20 5.11807V10.2999C20 10.8454 20.4 11.209 21 11.209C21.6 11.209 22 10.8454 22 10.2999V5.11807C22 4.66352 21.6 4.20898 21 4.20898Z" fill="#FDD842"/>
</svg>
