<svg width="24" height="24" viewBox="0 0 24 24" fill="none" xmlns="http://www.w3.org/2000/svg">
<path fill-rule="evenodd" clip-rule="evenodd" d="M14.3849 15.446C11.7346 17.5687 7.85521 17.4016 5.39842 14.9448C2.76238 12.3088 2.76238 8.03495 5.39842 5.39891C8.03446 2.76287 12.3083 2.76287 14.9443 5.39891C17.4011 7.85569 17.5682 11.7351 15.4455 14.3854L20.6012 19.541C20.8941 19.8339 20.8941 20.3088 20.6012 20.6017C20.3083 20.8946 19.8334 20.8946 19.5405 20.6017L14.3849 15.446ZM6.45908 13.8842C4.40883 11.8339 4.40883 8.50982 6.45908 6.45956C8.50934 4.40931 11.8334 4.40931 13.8837 6.45956C15.9324 8.50832 15.9339 11.829 13.8882 13.8797C13.8867 13.8812 13.8852 13.8826 13.8836 13.8842C13.8821 13.8857 13.8806 13.8872 13.8792 13.8887C11.8285 15.9344 8.50783 15.9329 6.45908 13.8842Z" fill="black"/>
</svg>
