<svg width="24" height="24" viewBox="0 0 24 24" fill="none" xmlns="http://www.w3.org/2000/svg">
<path fill-rule="evenodd" clip-rule="evenodd" d="M11.9998 3.07848L9.78697 5.36798C9.55144 5.61167 9.22706 5.74928 8.88816 5.74928H5.74977V8.88767C5.74977 9.22658 5.61216 9.55095 5.36847 9.78648L3.07897 11.9993L5.36847 14.2121C5.61216 14.4476 5.74977 14.772 5.74977 15.1109V18.2493H8.88816C9.22706 18.2493 9.55144 18.3869 9.78697 18.6306L11.9998 20.9201L14.2126 18.6306C14.4481 18.3869 14.7725 18.2493 15.1114 18.2493H18.2498V15.1109C18.2498 14.772 18.3874 14.4476 18.6311 14.2121L20.9206 11.9993L18.6311 9.78649C18.3874 9.55096 18.2498 9.22658 18.2498 8.88768V5.74928H15.1114C14.7725 5.74928 14.4481 5.61167 14.2126 5.36798L11.9998 3.07848ZM11.101 1.85005C11.5924 1.34165 12.4072 1.34165 12.8986 1.85005L15.2175 4.24928H18.4998C19.1902 4.24928 19.7498 4.80893 19.7498 5.49928V8.78162L22.149 11.1005C22.6574 11.5919 22.6574 12.4067 22.149 12.8981L19.7498 15.217V18.4993C19.7498 19.1897 19.1902 19.7493 18.4998 19.7493H15.2175L12.8986 22.1485C12.4072 22.6569 11.5924 22.6569 11.101 22.1485L8.7821 19.7493H5.49977C4.80941 19.7493 4.24977 19.1897 4.24977 18.4993V15.217L1.85054 12.8981C1.34214 12.4067 1.34213 11.5919 1.85054 11.1005L4.24977 8.78161V5.49928C4.24977 4.80892 4.80941 4.24928 5.49977 4.24928H8.7821L11.101 1.85005Z" fill="#111827"/>
<path fill-rule="evenodd" clip-rule="evenodd" d="M7.25 12C7.25 9.37665 9.37665 7.25 12 7.25C14.6234 7.25 16.75 9.37665 16.75 12C16.75 14.6234 14.6234 16.75 12 16.75C9.37665 16.75 7.25 14.6234 7.25 12ZM12 8.75C10.2051 8.75 8.75 10.2051 8.75 12C8.75 13.7949 10.2051 15.25 12 15.25C13.7949 15.25 15.25 13.7949 15.25 12C15.25 10.2051 13.7949 8.75 12 8.75Z" fill="#111827"/>
</svg>
