<svg width="24" height="24" viewBox="0 0 24 24" fill="none" xmlns="http://www.w3.org/2000/svg">
<path fill-rule="evenodd" clip-rule="evenodd" d="M10.939 12.0001L5.10583 17.8333C4.89114 18.048 4.83383 18.3605 4.93387 18.6274C4.83424 18.3606 4.89165 18.0486 5.10613 17.8341L10.9395 12.0007L10.939 12.0001ZM19.0665 18.1012C19.0301 18.0036 18.9727 17.9121 18.8942 17.8336L13.0611 12.0004L13.0609 12.0007L18.8945 17.8344C18.9728 17.9126 19.0301 18.0039 19.0665 18.1012ZM19.0666 5.37323C19.0301 5.27563 18.9727 5.1841 18.8942 5.10562C18.6013 4.81272 18.1265 4.81272 17.8336 5.10561L11.9999 10.9393L6.16627 5.10561C5.87338 4.81271 5.3985 4.81271 5.10561 5.10561C4.89075 5.32047 4.8335 5.63326 4.93388 5.9003C4.83391 5.63343 4.89125 5.32104 5.1059 5.10639C5.39879 4.81349 5.87367 4.8135 6.16656 5.10639L12.0002 10.9401L17.8339 5.10639C18.1268 4.8135 18.6016 4.8135 18.8945 5.1064C18.9728 5.18467 19.0301 5.27593 19.0666 5.37323ZM6.3784 4.89348L11.9999 10.515L17.6214 4.89348C18.0315 4.48342 18.6963 4.48343 19.1064 4.8935C19.5164 5.30354 19.5164 5.96833 19.1063 6.37837L13.4849 11.9999L19.1063 17.6214C19.5164 18.0315 19.5164 18.6963 19.1063 19.1063C18.6963 19.5164 18.0315 19.5164 17.6215 19.1063L11.9999 13.4848L6.3786 19.1061C5.96869 19.516 5.30414 19.5162 4.89404 19.1064C4.48368 18.6964 4.48353 18.0314 4.8937 17.6212L10.5149 11.9999L4.89347 6.3784C4.48342 5.96835 4.48343 5.30352 4.89348 4.89347C5.30353 4.48342 5.96835 4.48343 6.3784 4.89348Z" fill="#111827"/>
</svg>
