<svg width="174" height="297" viewBox="0 0 174 297" fill="none" xmlns="http://www.w3.org/2000/svg">
<rect width="174" height="297" fill="#D1D5DB"/>
<g clip-path="url(#clip0_383_13354)">
<path fill-rule="evenodd" clip-rule="evenodd" d="M159.069 74.9164C159.537 54.07 148.912 36.2005 133.811 27.3991C119.682 19.1672 101.936 19.124 86.9998 31.27C72.0642 19.124 54.3173 19.1744 40.1889 27.3991C25.0875 36.2077 14.4624 54.07 14.9309 74.9164C15.6112 105.243 44.4259 130.072 65.8234 142.585L63.9627 154.539C62.4526 164.24 69.9547 173 79.7723 173H95.0233C104.841 173 112.343 164.24 110.833 154.539L108.905 142.155C130.22 129.508 158.391 104.899 159.069 74.9164Z" fill="url(#paint0_linear_383_13354)"/>
</g>
<path d="M80.337 219.92H86.433C86.913 219.92 87.105 220.16 87.105 220.592V224.72C87.105 225.152 86.913 225.392 86.433 225.392H80.337V237.728C80.337 238.112 80.145 238.304 79.665 238.304H74.769C74.385 238.304 74.193 238.112 74.193 237.728V210.464C74.193 210.08 74.385 209.84 74.769 209.84H79.665C80.145 209.84 80.337 210.08 80.337 210.464V219.92ZM68.961 213.152V231.776C68.961 232.16 68.817 232.4 68.385 232.4H48.033C47.553 232.4 47.361 232.16 47.361 231.776V213.152C47.361 212.768 47.553 212.528 48.033 212.528H68.385C68.817 212.528 68.961 212.768 68.961 213.152ZM53.457 227.216H62.961V217.712H53.457V227.216ZM81.585 247.088C81.921 247.232 82.017 247.52 81.873 247.856L80.241 251.792C80.097 252.128 79.809 252.32 79.425 252.176C72.849 250.016 68.241 246.944 66.273 244.16C64.305 246.944 59.697 250.016 53.073 252.176C52.737 252.272 52.449 252.128 52.305 251.792L50.577 247.856C50.481 247.52 50.529 247.232 50.913 247.088C57.969 244.784 63.153 241.232 63.153 237.632V235.712C63.153 235.328 63.345 235.088 63.777 235.088H68.721C69.105 235.088 69.297 235.328 69.297 235.712V237.632C69.297 241.232 74.577 244.784 81.585 247.088ZM122.712 224.672H128.808C129.288 224.672 129.48 224.912 129.48 225.344V229.52C129.48 229.904 129.288 230.144 128.808 230.144H122.712V251.456C122.712 251.84 122.52 252.032 122.04 252.032H117.144C116.76 252.032 116.568 251.84 116.568 251.456V210.464C116.568 210.08 116.76 209.84 117.144 209.84H122.04C122.52 209.84 122.712 210.08 122.712 210.464V224.672ZM112.872 235.424L113.544 239.552C113.592 239.936 113.448 240.08 113.016 240.176C108.792 241.088 103.704 241.664 97.944 241.664H90.84C90.408 241.664 90.216 241.424 90.216 241.04V214.256C90.216 213.92 90.408 213.68 90.792 213.68H95.736C96.168 213.68 96.312 213.92 96.312 214.256V236.192H98.856C102.552 236.192 107.88 235.808 112.104 234.848C112.488 234.752 112.824 234.992 112.872 235.424Z" fill="#1F2937"/>
<path d="M13.7953 286.219V287.656H8.17031V292.391H6.45156V287.656H0.889061V286.219H13.7953ZM7.31094 278.766C10.3109 278.781 12.4047 280 12.4047 281.938C12.4047 283.859 10.3109 285.062 7.31094 285.062C4.29531 285.062 2.23281 283.859 2.24844 281.938C2.23281 280 4.29531 278.781 7.31094 278.766ZM7.31094 280.172C5.31094 280.172 4.01406 280.828 4.02969 281.938C4.01406 283.031 5.31094 283.688 7.31094 283.688C9.31094 283.688 10.6078 283.031 10.6078 281.938C10.6078 280.828 9.31094 280.172 7.31094 280.172ZM26.1984 278.266V292.406H24.4797V278.266H26.1984ZM21.8547 279.5V284.797H16.9953V287.641C19.2219 287.625 21.1437 287.516 23.3391 287.141L23.4953 288.562C21.0891 288.984 18.9797 289.062 16.4484 289.062H15.2141V283.422H20.0891V280.906H15.1984V279.5H21.8547ZM35.1328 279.484V286.156H28.4453V279.484H35.1328ZM30.1484 280.875V284.781H33.4297V280.875H30.1484ZM39.1016 278.266V282.406H41.0703V283.859H39.1016V288.578H37.3672V278.266H39.1016ZM39.6641 290.703V292.109H30.0547V287.578H31.7891V290.703H39.6641ZM46.0672 279.25C48.3016 279.234 49.9422 280.656 49.9578 282.656C49.9422 284.672 48.3016 286.078 46.0672 286.078C43.8484 286.078 42.1922 284.672 42.1922 282.656C42.1922 280.656 43.8484 279.234 46.0672 279.25ZM46.0672 280.75C44.8328 280.75 43.9109 281.484 43.9109 282.656C43.9109 283.844 44.8328 284.562 46.0672 284.562C47.3172 284.562 48.2547 283.844 48.2547 282.656C48.2547 281.484 47.3172 280.75 46.0672 280.75ZM53.2547 278.266V292.406H51.5203V278.266H53.2547ZM41.5516 288.031C44.0984 288.031 47.6297 288 50.6766 287.562L50.8172 288.828C47.6453 289.438 44.2547 289.453 41.7703 289.453L41.5516 288.031ZM65.5922 279.281V285.719H58.9984V279.281H65.5922ZM60.7016 280.672V284.328H63.8734V280.672H60.7016ZM69.6547 278.266V281.906H71.6234V283.359H69.6547V287.609H67.9203V278.266H69.6547ZM66.0766 287.328C66.0609 289.031 67.8109 290.547 70.6547 290.953L69.9672 292.312C67.7797 291.961 66.0766 290.969 65.2328 289.562C64.3578 290.969 62.6547 291.961 60.4672 292.312L59.7797 290.953C62.6078 290.547 64.3422 289.031 64.3422 287.328V286.938H66.0766V287.328ZM80.3703 279.109V280.5H77.4016C77.425 282.156 78.6437 283.742 80.8703 284.375L79.9953 285.734C78.3625 285.25 77.1828 284.227 76.5422 282.922C75.9094 284.328 74.6984 285.438 73.0109 285.969L72.1359 284.609C74.3937 283.945 75.6125 282.25 75.6516 280.5H72.6047V279.109H80.3703ZM83.8078 278.266V285.922H82.0578V278.266H83.8078ZM76.1828 286.547V288H82.0734V286.547H83.8078V292.219H74.4641V286.547H76.1828ZM76.1828 290.812H82.0734V289.344H76.1828V290.812ZM100.864 278.266V292.391H99.1141V278.266H100.864ZM96.6453 279.766C96.6453 283.969 95.0203 287.547 90.0672 289.891L89.1609 288.5C92.8562 286.742 94.575 284.352 94.8797 281.141H89.8797V279.766H96.6453ZM115.486 285.906V287.312H102.58V285.906H108.173V284.734H104.22V280.984H112.158V279.938H104.173V278.578H113.892V282.25H105.939V283.375H114.173V284.734H109.892V285.906H115.486ZM113.97 288.203V292.297H112.22V289.578H104.017V288.203H113.97ZM123.417 279.297C125.542 279.297 127.073 281.234 127.089 284.281C127.073 287.359 125.542 289.281 123.417 289.281C121.277 289.281 119.73 287.359 119.745 284.281C119.73 281.234 121.277 279.297 123.417 279.297ZM123.417 280.859C122.23 280.859 121.417 282.125 121.417 284.281C121.417 286.453 122.23 287.719 123.417 287.719C124.62 287.719 125.417 286.453 125.417 284.281C125.417 282.125 124.62 280.859 123.417 280.859ZM130.683 278.266V283.688H132.855V285.156H130.683V292.391H128.948V278.266H130.683ZM140.492 279.656C140.492 283.922 139.32 287.578 134.117 290.172L133.164 288.859C135.609 287.648 137.062 286.242 137.883 284.562L133.492 284.984L133.273 283.484L138.414 283.156C138.594 282.5 138.703 281.805 138.758 281.062H134.008V279.656H140.492ZM144.211 278.266V283.797H146.305V285.219H144.211V292.359H142.477V278.266H144.211ZM158.427 278.266V292.406H156.677V278.266H158.427ZM150.817 279.297C152.942 279.297 154.489 281.234 154.505 284.281C154.489 287.359 152.942 289.281 150.817 289.281C148.677 289.281 147.13 287.359 147.13 284.281C147.13 281.234 148.677 279.297 150.817 279.297ZM150.817 280.859C149.614 280.859 148.802 282.125 148.802 284.281C148.802 286.453 149.614 287.719 150.817 287.719C152.005 287.719 152.817 286.453 152.817 284.281C152.817 282.125 152.005 280.859 150.817 280.859ZM173.111 289.188V290.625H160.205V289.188H173.111ZM163.361 279.219V281.641H169.908V279.219H171.642V286.672H161.627V279.219H163.361ZM163.361 285.312H169.908V283H163.361V285.312Z" fill="#4B5563"/>
<defs>
<linearGradient id="paint0_linear_383_13354" x1="22.8327" y1="55.8064" x2="164.263" y2="65.8448" gradientUnits="userSpaceOnUse">
<stop stop-color="#FF7E32"/>
<stop offset="1" stop-color="#A5B4FC"/>
</linearGradient>
<clipPath id="clip0_383_13354">
<rect width="173" height="173" fill="white" transform="translate(0.5)"/>
</clipPath>
</defs>
</svg>
