<svg width="24" height="24" viewBox="0 0 24 24" fill="none" xmlns="http://www.w3.org/2000/svg">
<path d="M7.48359 5.26125C6.33916 5.38915 5.42311 6.2924 5.2907 7.42451C4.93501 10.4657 4.93501 13.5379 5.2907 16.5791C5.42311 17.7112 6.33916 18.6144 7.48359 18.7423C10.4604 19.075 13.54 19.075 16.5169 18.7423C17.6613 18.6144 18.5773 17.7112 18.7097 16.5791C18.9653 14.3939 19.0373 12.1927 18.9256 9.99851C18.9227 9.94185 18.9438 9.88658 18.984 9.84646L20.0227 8.80768C20.143 8.68745 20.3484 8.76263 20.3612 8.93219C20.5572 11.5371 20.5034 14.1562 20.1996 16.7533C19.9847 18.5903 18.5098 20.0289 16.6835 20.2331C13.5959 20.5781 10.4045 20.5781 7.31698 20.2331C5.4906 20.0289 4.0157 18.5903 3.80086 16.7533C3.43162 13.5964 3.43162 10.4072 3.80086 7.25026C4.0157 5.4133 5.4906 3.97465 7.31698 3.77053C10.4045 3.42545 13.5959 3.42545 16.6835 3.77053C17.3267 3.84242 17.9264 4.06745 18.4427 4.40909C18.5443 4.47631 18.5544 4.61915 18.4683 4.7053L17.6654 5.50818C17.5997 5.57385 17.4978 5.5849 17.416 5.54103C17.1426 5.39454 16.8388 5.29722 16.5169 5.26125C13.54 4.92854 10.4604 4.92854 7.48359 5.26125Z" fill="black"/>
<path d="M21.0303 6.03034C21.3232 5.73744 21.3232 5.26257 21.0303 4.96968C20.7374 4.67678 20.2626 4.67678 19.9697 4.96968L11.5 13.4393L9.03033 10.9697C8.73744 10.6768 8.26256 10.6768 7.96967 10.9697C7.67678 11.2626 7.67678 11.7374 7.96967 12.0303L10.9697 15.0303C11.2626 15.3232 11.7374 15.3232 12.0303 15.0303L21.0303 6.03034Z" fill="black"/>
</svg>
