<svg width="18" height="18" viewBox="0 0 18 18" fill="none" xmlns="http://www.w3.org/2000/svg">
<rect width="18" height="18" fill="#1E1E1E"/>
<path d="M-1565 -2843C-1565 -2844.11 -1564.1 -2845 -1563 -2845H8353C8354.1 -2845 8355 -2844.1 8355 -2843V21250C8355 21251.1 8354.1 21252 8353 21252H-1563C-1564.1 21252 -1565 21251.1 -1565 21250V-2843Z" fill="#404040"/>
<path d="M-1563 -2844H8353V-2846H-1563V-2844ZM8354 -2843V21250H8356V-2843H8354ZM8353 21251H-1563V21253H8353V21251ZM-1564 21250V-2843H-1566V21250H-1564ZM-1563 21251C-1563.55 21251 -1564 21250.6 -1564 21250H-1566C-1566 21251.7 -1564.66 21253 -1563 21253V21251ZM8354 21250C8354 21250.6 8353.55 21251 8353 21251V21253C8354.66 21253 8356 21251.7 8356 21250H8354ZM8353 -2844C8353.55 -2844 8354 -2843.55 8354 -2843H8356C8356 -2844.66 8354.66 -2846 8353 -2846V-2844ZM-1563 -2846C-1564.66 -2846 -1566 -2844.66 -1566 -2843H-1564C-1564 -2843.55 -1563.55 -2844 -1563 -2844V-2846Z" fill="white" fill-opacity="0.1"/>
<g clip-path="url(#clip0_0_1)">
<rect width="375" height="812" transform="translate(-124 -557)" fill="white"/>
<rect x="-99.5" y="-15.5" width="326" height="49" rx="7.5" fill="#FEE500"/>
<rect x="-99.5" y="-15.5" width="326" height="49" rx="7.5" stroke="#FEE500"/>
<path fill-rule="evenodd" clip-rule="evenodd" d="M8.76923 0.341797C4.13231 0.341797 0 3.55 0 7.50744C0 9.96795 1.59846 12.1382 4.03231 13.4285L3.00821 17.1874C2.91744 17.5203 3.2959 17.7849 3.58615 17.5921L8.07539 14.6151C8.45385 14.6515 8.83897 14.6731 8.76923 14.6731C14.3287 14.6731 18 11.4644 18 7.50744C18 3.55 14.3287 0.341797 8.76923 0.341797Z" fill="#262626" fill-opacity="0.9"/>
</g>
<defs>
<clipPath id="clip0_0_1">
<rect width="375" height="812" fill="white" transform="translate(-124 -557)"/>
</clipPath>
</defs>
</svg>
