<svg width="24" height="24" viewBox="0 0 24 24" fill="none" xmlns="http://www.w3.org/2000/svg">
<path fill-rule="evenodd" clip-rule="evenodd" d="M10.4864 4.11389C11.1608 2.95162 12.8392 2.95163 13.5136 4.11389L15.579 7.67325C15.7694 8.00134 16.0984 8.22523 16.4735 8.28188L19.9031 8.79988C21.3981 9.02568 21.9225 10.9133 20.7582 11.8778L18.2593 13.9482C17.9086 14.2387 17.7437 14.6971 17.8289 15.1446L18.5289 18.8205C18.8031 20.2605 17.2914 21.3793 15.9944 20.6963L12.5824 18.8998C12.2178 18.7078 11.7822 18.7078 11.4176 18.8998L8.00554 20.6963C6.70853 21.3793 5.1969 20.2605 5.4711 18.8205L6.17108 15.1446C6.25628 14.6971 6.09136 14.2387 5.74062 13.9482L3.24172 11.8778C2.07743 10.9133 2.60184 9.02568 4.09683 8.79988L7.52648 8.28188C7.90154 8.22523 8.23059 8.00134 8.42096 7.67325L10.4864 4.11389ZM12.2162 4.86672C12.1199 4.70068 11.8801 4.70068 11.7838 4.86672L9.71836 8.42608C9.29954 9.14787 8.57563 9.64043 7.75049 9.76505L4.32085 10.2831C4.10728 10.3153 4.03236 10.585 4.19869 10.7228L6.69759 12.7931C7.46922 13.4324 7.83205 14.4408 7.6446 15.4251L6.94462 19.1011C6.90545 19.3068 7.12139 19.4667 7.30668 19.3691L10.7188 17.5725C11.5207 17.1502 12.4793 17.1502 13.2812 17.5725L16.6933 19.3691C16.8786 19.4667 17.0945 19.3068 17.0553 19.1011L16.3554 15.4251C16.1679 14.4408 16.5307 13.4324 17.3024 12.7931L19.8013 10.7228C19.9676 10.585 19.8927 10.3153 19.6791 10.2831L16.2495 9.76505C15.4243 9.64043 14.7004 9.14787 14.2816 8.42608L12.2162 4.86672Z" fill="black"/>
</svg>
