<svg width="19" height="18" viewBox="0 0 19 18" fill="none" xmlns="http://www.w3.org/2000/svg">
<path d="M16.4599 13.818C16.199 14.4206 15.8902 14.9754 15.5324 15.4854C15.0448 16.1807 14.6455 16.662 14.3378 16.9293C13.8607 17.368 13.3496 17.5926 12.8023 17.6054C12.4094 17.6054 11.9356 17.4936 11.3841 17.2668C10.8307 17.0411 10.3221 16.9293 9.85715 16.9293C9.36948 16.9293 8.84646 17.0411 8.28702 17.2668C7.72674 17.4936 7.27537 17.6118 6.93028 17.6235C6.40545 17.6459 5.88232 17.4148 5.36015 16.9293C5.02687 16.6386 4.61001 16.1403 4.11063 15.4343C3.57483 14.6805 3.13433 13.8063 2.78923 12.8096C2.41965 11.7331 2.23438 10.6907 2.23438 9.68151C2.23438 8.52548 2.48417 7.52842 2.98451 6.69288C3.37774 6.02175 3.90087 5.49234 4.5556 5.1037C5.21034 4.71505 5.91778 4.517 6.67963 4.50433C7.09649 4.50433 7.64315 4.63328 8.32248 4.8867C8.9999 5.14097 9.43486 5.26991 9.62556 5.26991C9.76814 5.26991 10.2513 5.11914 11.0705 4.81855C11.8451 4.53979 12.4989 4.42437 13.0345 4.46983C14.4858 4.58696 15.5761 5.15907 16.3012 6.18977C15.0032 6.97622 14.3612 8.07774 14.374 9.49081C14.3857 10.5915 14.785 11.5074 15.5697 12.2346C15.9253 12.5722 16.3225 12.8331 16.7644 13.0183C16.6686 13.2962 16.5674 13.5624 16.4599 13.818ZM13.1314 0.720098C13.1314 1.58279 12.8162 2.38829 12.188 3.13385C11.4298 4.02018 10.5128 4.53234 9.51845 4.45152C9.50577 4.34802 9.49843 4.23909 9.49843 4.12463C9.49843 3.29644 9.85896 2.41012 10.4992 1.68543C10.8189 1.31851 11.2254 1.01341 11.7184 0.770036C12.2103 0.530289 12.6756 0.397705 13.1133 0.375C13.126 0.490329 13.1314 0.605665 13.1314 0.720087V0.720098Z" fill="white"/>
</svg>
