<svg width="24" height="24" viewBox="0 0 24 24" fill="none" xmlns="http://www.w3.org/2000/svg">
<path d="M6.18038 8.21499C6.11359 8.14631 6.03502 8.09263 5.94916 8.05699C5.8633 8.02135 5.77183 8.00447 5.67998 8.0073C5.58812 8.01012 5.49767 8.03261 5.4138 8.07347C5.32993 8.11433 5.25428 8.17276 5.19116 8.24543C5.12805 8.31811 5.0787 8.40359 5.04595 8.49701C5.0132 8.59044 4.99768 8.68996 5.00028 8.78991C5.00288 8.88985 5.02354 8.98826 5.0611 9.07952C5.09865 9.17078 5.15235 9.25309 5.21915 9.32177L11.5155 15.7919C11.6453 15.9255 11.8173 16 11.9961 16C12.1748 16 12.3468 15.9255 12.4767 15.7919L18.7737 9.32177C18.8419 9.25355 18.8971 9.17125 18.9358 9.07966C18.9746 8.98806 18.9963 8.889 18.9996 8.78822C19.0029 8.68745 18.9877 8.58696 18.955 8.49261C18.9223 8.39825 18.8727 8.3119 18.8091 8.23859C18.7454 8.16527 18.669 8.10644 18.5843 8.06551C18.4996 8.02458 18.4083 8.00238 18.3156 8.00018C18.223 7.99799 18.1308 8.01584 18.0446 8.05272C17.9583 8.08959 17.8797 8.14475 17.8132 8.21499L11.9961 14.1919L6.18038 8.21499Z" fill="#111827"/>
</svg>
