<svg width="24" height="24" viewBox="0 0 24 24" fill="none" xmlns="http://www.w3.org/2000/svg">
<path d="M12 13.25C11.5858 13.25 11.25 12.9142 11.25 12.5V7.5C11.25 7.0858 11.5858 6.75 12 6.75C12.4142 6.75 12.75 7.0858 12.75 7.5L12.75 12.5C12.75 12.9142 12.4142 13.25 12 13.25Z" fill="black"/>
<path d="M12 15C11.4477 15 11 15.4477 11 16C11 16.5523 11.4477 17 12 17C12.5523 17 13 16.5523 13 16C13 15.4477 12.5523 15 12 15Z" fill="black"/>
<path fill-rule="evenodd" clip-rule="evenodd" d="M20.75 12C20.75 16.8325 16.8325 20.75 12 20.75C7.1675 20.75 3.25 16.8325 3.25 12C3.25 7.1675 7.1675 3.25 12 3.25C16.8325 3.25 20.75 7.1675 20.75 12ZM12 19.25C16.0041 19.25 19.25 16.0041 19.25 12C19.25 7.9959 16.0041 4.75 12 4.75C7.9959 4.75 4.75 7.9959 4.75 12C4.75 16.0041 7.9959 19.25 12 19.25Z" fill="black"/>
</svg>
