<svg width="24" height="24" viewBox="0 0 24 24" fill="none" xmlns="http://www.w3.org/2000/svg">
<path d="M13.2039 3.68626C13.2983 3.59084 13.3722 3.4786 13.4212 3.35595C13.4701 3.23329 13.4934 3.10262 13.4895 2.97139C13.4856 2.84017 13.4547 2.71096 13.3985 2.59115C13.3423 2.47133 13.262 2.36325 13.162 2.27309C13.0621 2.18292 12.9446 2.11243 12.8161 2.06565C12.6877 2.01886 12.5508 1.99669 12.4134 2.0004C12.276 2.00411 12.1406 2.03363 12.0152 2.08728C11.8897 2.14093 11.7765 2.21765 11.6821 2.31307L2.7856 11.3078C2.60188 11.4933 2.49951 11.739 2.49951 11.9944C2.49951 12.2497 2.60188 12.4954 2.7856 12.681L11.6821 21.6767C11.7759 21.7742 11.889 21.8529 12.015 21.9083C12.1409 21.9637 12.2771 21.9947 12.4157 21.9994C12.5543 22.0041 12.6924 21.9824 12.8222 21.9357C12.9519 21.889 13.0706 21.8181 13.1715 21.7272C13.2723 21.6363 13.3532 21.5272 13.4094 21.4062C13.4657 21.2852 13.4962 21.1547 13.4993 21.0223C13.5023 20.89 13.4777 20.7584 13.427 20.6351C13.3763 20.5119 13.3005 20.3995 13.2039 20.3045L4.98565 11.9944L13.2039 3.68626Z" fill="#111827"/>
</svg>
