<svg width="24" height="24" viewBox="0 0 24 24" fill="none" xmlns="http://www.w3.org/2000/svg">
<path d="M10.7956 20.3137C10.7012 20.4092 10.6274 20.5214 10.5784 20.6441C10.5294 20.7667 10.5061 20.8974 10.51 21.0286C10.5139 21.1598 10.5448 21.289 10.601 21.4089C10.6572 21.5287 10.7375 21.6367 10.8375 21.7269C10.9374 21.8171 11.0549 21.8876 11.1834 21.9344C11.3118 21.9811 11.4487 22.0033 11.5861 21.9996C11.7235 21.9959 11.8589 21.9664 11.9843 21.9127C12.1098 21.8591 12.223 21.7823 12.3174 21.6869L21.2139 12.6922C21.3976 12.5067 21.5 12.261 21.5 12.0056C21.5 11.7503 21.3976 11.5046 21.2139 11.319L12.3174 2.3233C12.2236 2.22579 12.1105 2.14706 11.9845 2.09167C11.8586 2.03628 11.7224 2.00533 11.5838 2.00063C11.4452 1.99593 11.3071 2.01757 11.1773 2.06428C11.0476 2.111 10.9289 2.18187 10.8281 2.27277C10.7272 2.36367 10.6464 2.47279 10.5901 2.5938C10.5338 2.7148 10.5033 2.84528 10.5002 2.97765C10.4972 3.11002 10.5218 3.24164 10.5725 3.36487C10.6232 3.4881 10.699 3.60049 10.7956 3.69549L19.0139 12.0056L10.7956 20.3137Z" fill="#111827"/>
</svg>
