<svg width="24" height="24" viewBox="0 0 24 24" fill="none" xmlns="http://www.w3.org/2000/svg">
<g clip-path="url(#clip0_362_12482)">
<path fill-rule="evenodd" clip-rule="evenodd" d="M11.75 3C6.91751 3 3 6.91751 3 11.75C3 16.5825 6.91751 20.5 11.75 20.5C16.5825 20.5 20.5 16.5825 20.5 11.75C20.5 6.91751 16.5825 3 11.75 3ZM4.5 11.75C4.5 7.74594 7.74594 4.5 11.75 4.5C15.7541 4.5 19 7.74594 19 11.75C19 15.7541 15.7541 19 11.75 19C7.74594 19 4.5 15.7541 4.5 11.75Z" fill="black"/>
<path d="M13.6635 10.1105C13.4929 9.4688 13.0024 9.04812 12.0995 9.04099C11.1469 9.04812 10.4716 9.56149 10.4645 10.2103C10.4716 10.7237 10.8839 11.0731 11.7867 11.2941L12.9384 11.5793C14.3175 11.9073 14.9929 12.5989 15 13.6755C14.9929 15.016 13.9052 16.0071 11.9716 16C10.237 16.0071 9.20616 15.2299 9 13.8181H10.2796C10.4218 14.5739 10.9692 14.9376 11.9431 14.9304C13.045 14.9376 13.7346 14.4741 13.7346 13.7468C13.7346 13.1978 13.3436 12.8413 12.4692 12.6346L11.3033 12.3636C9.95972 12.0499 9.24171 11.3155 9.24171 10.2816C9.24171 8.95543 10.4005 8 12.0995 8C13.6991 8 14.7014 8.85561 14.8578 10.1105H13.6635Z" fill="black"/>
</g>
<defs>
<clipPath id="clip0_362_12482">
<rect width="24" height="24" fill="white"/>
</clipPath>
</defs>
</svg>
