<svg width="24" height="24" viewBox="0 0 24 24" fill="none" xmlns="http://www.w3.org/2000/svg">
<path d="M7.75016 4C7.75016 3.58579 7.41437 3.25 7.00016 3.25C6.58595 3.25 6.25016 3.58579 6.25016 4V5.81643C4.75709 6.02751 3.57754 7.20845 3.37786 8.71484L3.29131 9.36779C3.27663 9.47849 3.2626 9.58926 3.24921 9.70008C3.2137 9.99405 3.4453 10.25 3.74141 10.25H20.2589C20.555 10.25 20.7866 9.99405 20.7511 9.70008C20.7377 9.58926 20.7237 9.47849 20.709 9.36779L20.6224 8.71484C20.4228 7.20847 19.2432 6.02754 17.7502 5.81644V4C17.7502 3.58579 17.4144 3.25 17.0002 3.25C16.586 3.25 16.2502 3.58579 16.2502 4V5.66763C13.4225 5.4158 10.5779 5.4158 7.75016 5.66763V4Z" fill="#111827"/>
<path d="M20.9444 12.2256C20.9356 11.9591 20.7154 11.75 20.4489 11.75H3.55069C3.28411 11.75 3.06395 11.9591 3.05519 12.2256C2.9958 14.0332 3.1056 15.8446 3.38433 17.6359C3.59534 18.9919 4.697 20.0335 6.06274 20.1681L7.25575 20.2858C10.4108 20.5969 13.5888 20.5969 16.7438 20.2858L17.9368 20.1681C19.3026 20.0335 20.4042 18.9919 20.6152 17.6359C20.894 15.8446 21.0038 14.0332 20.9444 12.2256Z" fill="#111827"/>
</svg>
