<svg width="25" height="24" viewBox="0 0 25 24" fill="none" xmlns="http://www.w3.org/2000/svg">
<path d="M9.25 10C9.25 8.20507 10.7051 6.75 12.5 6.75C14.2949 6.75 15.75 8.20507 15.75 10C15.75 11.7949 14.2949 13.25 12.5 13.25C10.7051 13.25 9.25 11.7949 9.25 10Z" fill="#111827"/>
<path fill-rule="evenodd" clip-rule="evenodd" d="M4.27354 8.87739C4.61718 4.70845 8.10097 1.5 12.2841 1.5H12.716C16.8991 1.5 20.3829 4.70845 20.7265 8.87739C20.9115 11.122 20.2182 13.3508 18.7925 15.0943L13.9995 20.9561C13.2245 21.9039 11.7756 21.9039 11.0006 20.9561L6.20752 15.0943C4.78187 13.3508 4.08852 11.122 4.27354 8.87739ZM12.5 5.25C9.87665 5.25 7.75 7.37665 7.75 10C7.75 12.6234 9.87665 14.75 12.5 14.75C15.1234 14.75 17.25 12.6234 17.25 10C17.25 7.37665 15.1234 5.25 12.5 5.25Z" fill="#111827"/>
</svg>
