<svg width="24" height="24" viewBox="0 0 24 24" fill="none" xmlns="http://www.w3.org/2000/svg">
<path fill-rule="evenodd" clip-rule="evenodd" d="M7.34474 4.01898C10.4138 3.67596 13.5866 3.67596 16.6557 4.01898C18.3684 4.2104 19.7501 5.55981 19.9513 7.2793C20.3182 10.417 20.3182 13.5867 19.9513 16.7243C19.7501 18.4438 18.3684 19.7932 16.6557 19.9846C13.5866 20.3276 10.4138 20.3276 7.34474 19.9846C5.63202 19.7932 4.25026 18.4438 4.04915 16.7243C3.68218 13.5867 3.68218 10.417 4.04915 7.2793C4.25026 5.55981 5.63202 4.2104 7.34474 4.01898ZM12.0002 7.00912C12.4144 7.00912 12.7502 7.34491 12.7502 7.75912V11.2518H16.2429C16.6571 11.2518 16.9929 11.5876 16.9929 12.0018C16.9929 12.416 16.6571 12.7518 16.2429 12.7518H12.7502V16.2444C12.7502 16.6587 12.4144 16.9944 12.0002 16.9944C11.586 16.9944 11.2502 16.6587 11.2502 16.2444V12.7518H7.75763C7.34341 12.7518 7.00763 12.416 7.00763 12.0018C7.00763 11.5876 7.34341 11.2518 7.75763 11.2518H11.2502V7.75912C11.2502 7.34491 11.586 7.00912 12.0002 7.00912Z" fill="black"/>
</svg>
