<svg width="375" height="812" viewBox="0 0 375 812" fill="none" xmlns="http://www.w3.org/2000/svg">
<path d="M244.858 221.118L-96.4388 307.926L-134.522 132.726L64.9572 88.6809M244.858 221.118L545.615 144.621L521.108 85.6508M244.858 221.118L170.234 -47.7297M244.858 221.118L274.266 342.032L328.748 368.28M434.147 419.059L328.748 368.28M328.748 368.28L362.102 311.841M362.102 311.841L357.333 244.369M362.102 311.841L417.295 336.875M357.333 244.369L-51.3614 351.751M357.333 244.369L456.007 222.198M-40.3403 440.731L54.5797 479.143L243.046 567.233M108.456 707.421L168.414 733.352M108.456 707.421L132.376 656.963M108.456 707.421L93.2453 743.879M169.103 579.49L-54.451 487.661M169.103 579.49L257.017 623.183L227.276 680.983L192.635 676.18L168.414 733.352M169.103 579.49L132.376 656.963M168.414 733.352L263.731 774.575L343.336 686.209L367.33 618.921L243.046 567.233M132.376 656.963L68.334 628.529L99.7993 601.387L-47.6872 540.745M48.2563 851.71L70.7508 797.795M93.2453 743.879L340.034 862.829M93.2453 743.879L-102.298 656.476M93.2453 743.879L70.7508 797.795M70.7508 797.795L242.781 878.678M70.7508 797.795L27.9746 778.598M-77.5432 846.221L-30.8324 752.207L27.9746 778.598M27.9746 778.598L-15.1897 854.865M243.046 567.233L276.227 484.618M521.108 85.6508L279.932 148.359L260.595 72.3483M521.108 85.6508L449.04 64.796L419.102 -17.0297L271.745 27.1804M64.9572 88.6809L103.63 201.539M64.9572 88.6809L46.8965 26.97" stroke="#F6F6F6" stroke-width="30"/>
</svg>
