<svg width="24" height="24" viewBox="0 0 24 24" fill="none" xmlns="http://www.w3.org/2000/svg">
<path d="M6.54567 8.16192C6.33045 8.10514 6.15157 7.9557 6.05741 7.75401C5.96325 7.55232 5.96354 7.31923 6.0582 7.11778L7.71895 3.58339C7.84271 3.32 8.10766 3.15198 8.39868 3.15234C8.68969 3.1527 8.95422 3.32138 9.07733 3.58507L9.80996 5.1543C9.83615 5.14401 9.8632 5.13508 9.89103 5.12762C14.2383 3.96276 18.7069 6.54266 19.8717 10.89C21.0366 15.2374 18.4567 19.7059 14.1094 20.8708C9.76204 22.0356 5.29351 19.4557 4.12864 15.1084C3.75821 13.7259 3.76655 12.3291 4.09098 11.0303C4.19137 10.6285 4.59853 10.3841 5.00039 10.4845C5.40226 10.5848 5.64665 10.992 5.54626 11.3939C5.28197 12.4519 5.27468 13.5899 5.57753 14.7202C6.52798 18.2673 10.174 20.3723 13.7211 19.4219C17.2683 18.4714 19.3733 14.8254 18.4229 11.2783C17.4879 7.78909 13.9449 5.69528 10.4533 6.53233L11.1925 8.11563C11.3156 8.37932 11.275 8.69043 11.0885 8.91376C10.9019 9.13709 10.603 9.23233 10.3216 9.1581L6.54567 8.16192Z" fill="black"/>
</svg>
