<svg width="120" height="23" viewBox="0 0 120 23" fill="none" xmlns="http://www.w3.org/2000/svg">
<path d="M93.3666 22.1485C91.6039 22.1485 90.3036 21.6861 89.4656 20.7615C88.6565 19.8079 88.252 18.6376 88.252 17.2506C88.252 16.6438 88.3242 15.9647 88.4687 15.2134C88.6132 14.4332 88.7576 13.6819 88.9021 12.9595C89.0755 12.2371 89.1911 11.7748 89.2489 11.5725C89.48 10.5611 89.6968 9.56423 89.899 8.58176C90.1013 7.59929 90.2025 6.80465 90.2025 6.19783C90.2025 4.72413 89.6823 3.98728 88.6421 3.98728C87.8908 3.98728 87.2262 4.36293 86.6482 5.11423C86.0703 5.83663 85.608 6.7902 85.2612 7.97494L82.3138 21.8884H76.0723L80.6667 0.216346H86.9083L86.4315 2.47024C87.8763 0.852059 89.5667 0.0429688 91.5028 0.0429688C92.9765 0.0429688 94.1468 0.447514 95.0136 1.2566C95.8805 2.06569 96.314 3.29378 96.314 4.94085C96.314 5.77884 96.2128 6.71796 96.0106 7.75822C95.8083 8.76959 95.5193 10.0121 95.1437 11.4858C94.9125 12.3816 94.6958 13.2629 94.4935 14.1298C94.3201 14.9678 94.2335 15.6324 94.2335 16.1236C94.2335 16.7016 94.3635 17.1495 94.6236 17.4673C94.8836 17.7852 95.3315 17.9441 95.9672 17.9441C96.8341 17.9441 97.5276 17.6407 98.0477 17.0339C98.5679 16.3982 99.088 15.4301 99.6081 14.1298H101.429C100.359 17.3084 99.1169 19.4467 97.701 20.5447C96.314 21.6139 94.8692 22.1485 93.3666 22.1485Z" fill="#1F2937"/>
<path d="M71.8861 22.1485C70.1234 22.1485 68.8231 21.6861 67.9851 20.7615C67.176 19.8079 66.7715 18.6376 66.7715 17.2506C66.7715 16.6438 66.8437 15.9647 66.9882 15.2134C67.1327 14.4332 67.2772 13.6819 67.4217 12.9595C67.595 12.2371 67.7106 11.7748 67.7684 11.5725C67.9996 10.5611 68.2163 9.56423 68.4186 8.58176C68.6208 7.59929 68.722 6.80465 68.722 6.19783C68.722 4.72413 68.2018 3.98728 67.1616 3.98728C66.4103 3.98728 65.7457 4.36293 65.1678 5.11423C64.5898 5.83663 64.1275 6.7902 63.7808 7.97494L60.8333 21.8884H54.5918L59.1863 0.216346H65.4278L64.951 2.47024C66.3958 0.852059 68.0863 0.0429688 70.0223 0.0429688C71.496 0.0429688 72.6663 0.447514 73.5332 1.2566C74.4001 2.06569 74.8335 3.29378 74.8335 4.94085C74.8335 5.77884 74.7324 6.71796 74.5301 7.75822C74.3278 8.76959 74.0389 10.0121 73.6632 11.4858C73.432 12.3816 73.2153 13.2629 73.0131 14.1298C72.8397 14.9678 72.753 15.6324 72.753 16.1236C72.753 16.7016 72.883 17.1495 73.1431 17.4673C73.4031 17.7852 73.851 17.9441 74.4867 17.9441C75.3536 17.9441 76.0471 17.6407 76.5673 17.0339C77.0874 16.3982 77.6075 15.4301 78.1277 14.1298H79.9481C78.879 17.3084 77.6364 19.4467 76.2205 20.5447C74.8335 21.6139 73.3887 22.1485 71.8861 22.1485Z" fill="#1F2937"/>
<path d="M28.0003 22.1488C26.2376 22.1488 24.9373 21.6865 24.0993 20.7618C23.2902 19.8083 22.8857 18.638 22.8857 17.251C22.8857 16.6441 22.9579 15.9651 23.1024 15.2138C23.2469 14.4336 23.3914 13.6823 23.5359 12.9599C23.7092 12.2375 23.8248 11.7752 23.8826 11.5729C24.1138 10.5615 24.3305 9.5646 24.5328 8.58214C24.735 7.59967 24.8362 6.80503 24.8362 6.19821C24.8362 4.72451 24.316 3.98766 23.2758 3.98766C22.5245 3.98766 21.8599 4.36331 21.282 5.11461C20.704 5.83701 20.2417 6.79058 19.895 7.97532L16.9476 21.8888H10.706L13.8701 6.93506C13.9568 6.58831 14.0001 6.2271 14.0001 5.85146C14.0001 4.58003 13.5667 3.94431 12.6998 3.94431C11.8907 3.94431 11.1828 4.31996 10.576 5.07126C9.99804 5.79366 9.53571 6.76168 9.18895 7.97532L6.24155 21.8888H0L4.59448 0.21672H10.836L10.3592 2.47061C11.8329 0.823538 13.5956 0 15.6472 0C18.1901 0 19.6782 1.24253 20.1117 3.72759C21.701 1.27143 23.7092 0.0433436 26.1365 0.0433436C27.6102 0.0433436 28.7805 0.447889 29.6474 1.25698C30.5143 2.06607 30.9477 3.29415 30.9477 4.94123C30.9477 5.77922 30.8466 6.71834 30.6443 7.7586C30.442 8.76996 30.1531 10.0125 29.7774 11.4862C29.5462 12.382 29.3295 13.2633 29.1272 14.1302C28.9539 14.9682 28.8672 15.6328 28.8672 16.124C28.8672 16.7019 28.9972 17.1498 29.2573 17.4677C29.5173 17.7855 29.9652 17.9445 30.6009 17.9445C31.4678 17.9445 32.1613 17.6411 32.6815 17.0342C33.2016 16.3985 33.7217 15.4305 34.2419 14.1302H36.0623C34.9931 17.3088 33.7506 19.4471 32.3347 20.5451C30.9477 21.6143 29.5029 22.1488 28.0003 22.1488Z" fill="#1F2937"/>
<path fill-rule="evenodd" clip-rule="evenodd" d="M104.398 22.1488C102.751 22.1488 101.378 21.5854 100.28 20.4584C99.1818 19.3315 98.6328 17.5688 98.6328 15.1704C98.6328 13.0321 99.0518 10.7927 99.8898 8.4521C100.757 6.08262 102.028 4.08879 103.704 2.47061C105.409 0.823538 107.432 0 109.772 0C110.957 0 111.838 0.202272 112.416 0.606816C112.994 1.01136 113.283 1.54594 113.283 2.21055V2.51396L113.76 0.21672H120.001L116.881 14.9537C116.765 15.3872 116.707 15.8495 116.707 16.3407C116.707 16.9187 116.837 17.3377 117.097 17.5977C117.386 17.8289 117.849 17.9445 118.484 17.9445C118.889 17.9445 119.207 17.8867 119.438 17.7711C118.802 19.3893 118.195 20.5307 117.618 21.1953C117.04 21.831 116.202 22.1488 115.104 22.1488C113.919 22.1488 112.951 21.8021 112.2 21.1086C111.477 20.3862 111.029 19.3893 110.856 18.1178C109.093 20.8052 106.94 22.1488 104.398 22.1488ZM114.704 9.97823C114.742 8.27776 113.875 6.82012 112.644 6.10218C111.491 5.4307 110.044 5.42717 108.825 6.41794C107.607 5.42717 106.159 5.43128 105.007 6.10218C103.775 6.82071 102.908 8.27776 102.946 9.97823C103.027 13.5691 107.943 16.2151 108.825 16.2151C109.707 16.2151 114.623 13.5691 114.704 9.97823Z" fill="#1F2937"/>
<path fill-rule="evenodd" clip-rule="evenodd" d="M39.0343 22.1488C37.3872 22.1488 36.0147 21.5854 34.9166 20.4584C33.8186 19.3315 33.2695 17.5688 33.2695 15.1704C33.2695 13.0321 33.6885 10.7927 34.5265 8.4521C35.3934 6.08262 36.6648 4.08879 38.3408 2.47061C40.0457 0.823538 42.0684 0 44.409 0C45.5937 0 46.475 0.202272 47.053 0.606816C47.6309 1.01136 47.9198 1.54594 47.9198 2.21055V2.51396L48.3966 0.21672H54.6382L51.5174 14.9537C51.4018 15.3872 51.344 15.8495 51.344 16.3407C51.344 17.5833 51.9364 18.2045 53.1211 18.2045C53.9302 18.2045 54.6237 17.8289 55.2017 17.0776C55.8085 16.3263 56.2853 15.3438 56.632 14.1302H58.4525C57.3833 17.251 56.0541 19.3748 54.4648 20.5018C52.9044 21.5998 51.3296 22.1488 49.7403 22.1488C48.5267 22.1488 47.5442 21.8165 46.7929 21.1519C46.0705 20.4584 45.6371 19.4615 45.4926 18.1612C44.6546 19.3459 43.7155 20.3139 42.6752 21.0652C41.6638 21.7876 40.4502 22.1488 39.0343 22.1488ZM49.6883 9.97823C49.7265 8.27776 48.8598 6.82012 47.628 6.10218C46.4755 5.4307 45.0279 5.42717 43.8096 6.41794C42.5913 5.42717 41.1436 5.43128 39.9912 6.10218C38.7593 6.82071 37.8926 8.27776 37.9308 9.97823C38.0114 13.5691 42.9276 16.2151 43.8096 16.2151C44.6916 16.2151 49.6072 13.5691 49.6883 9.97823Z" fill="#1F2937"/>
</svg>
