<svg width="217" height="217" viewBox="0 0 217 217" fill="none" xmlns="http://www.w3.org/2000/svg">
<g clip-path="url(#clip0_210_8966)">
<path fill-rule="evenodd" clip-rule="evenodd" d="M198.899 93.9703C199.487 67.8218 186.159 45.4076 167.217 34.3677C149.495 24.0421 127.235 23.9878 108.5 39.2231C89.7659 23.9878 67.5054 24.0511 49.7837 34.3677C30.8414 45.4166 17.514 67.8218 18.1017 93.9703C18.9551 132.01 55.0988 163.154 81.9384 178.85L78.8736 198.539C77.3636 208.24 84.8656 217 94.6833 217H123.317C133.134 217 140.636 208.24 139.126 198.539L135.977 178.31C162.714 162.446 198.049 131.579 198.899 93.9703Z" fill="#FF4949"/>
<circle cx="68.5" cy="115.5" r="12.5" fill="#DF1919"/>
<circle cx="90.3493" cy="88.8913" r="10.8913" fill="white"/>
<path d="M97.2752 86.5507C95.6752 82.3007 90.4752 84.2007 90.0002 86.3257C89.3502 84.0757 84.2752 82.4007 82.7252 86.5507C81.0002 91.1757 89.4002 95.3257 90.0002 96.0007C90.6002 95.4507 99.0002 91.1007 97.2752 86.5507Z" fill="#2F3B39"/>
<circle cx="125.537" cy="88.8913" r="10.8913" fill="white"/>
<path d="M132.275 86.5507C130.675 82.3007 125.475 84.2007 125 86.3257C124.35 84.0757 119.275 82.4007 117.725 86.5507C116 91.1757 124.4 95.3257 125 96.0007C125.6 95.4507 134 91.1007 132.275 86.5507Z" fill="#2F3B39"/>
<circle cx="150.5" cy="115.5" r="12.5" fill="#DF1919"/>
<path d="M117.245 110.5C117.245 111.335 116.724 112.454 115.127 113.496C113.555 114.521 111.22 115.245 108.5 115.245C105.78 115.245 103.445 114.521 101.873 113.496C100.276 112.454 99.755 111.335 99.755 110.5C99.755 109.665 100.276 108.546 101.873 107.504C103.445 106.479 105.78 105.755 108.5 105.755C111.22 105.755 113.555 106.479 115.127 107.504C116.724 108.546 117.245 109.665 117.245 110.5Z" stroke="#20273D" stroke-width="5.51"/>
</g>
<defs>
<clipPath id="clip0_210_8966">
<rect width="217" height="217" fill="white"/>
</clipPath>
</defs>
</svg>
